<?xml version="1.0" encoding="UTF-8"?>
<svg version="1.1" xmlns="http://www.w3.org/2000/svg" width="500" height="500">
<path d="M0 0 C165 0 330 0 500 0 C500 165 500 330 500 500 C335 500 170 500 0 500 C0 335 0 170 0 0 Z " fill="#FEFEFE" transform="translate(0,0)"/>
<path d="M0 0 C1.46566406 0.05607422 1.46566406 0.05607422 2.9609375 0.11328125 C3.94320312 0.13777344 4.92546875 0.16226563 5.9375 0.1875 C8.3359375 0.42578125 8.3359375 0.42578125 9.3359375 1.42578125 C9.54392687 3.86222821 9.66038478 6.23546351 9.7109375 8.67578125 C9.74832031 9.34480469 9.78570312 10.01382813 9.82421875 10.703125 C9.89358713 14.62629248 9.45999008 16.26821782 7.0078125 19.3828125 C4.3359375 21.42578125 4.3359375 21.42578125 1.2109375 21.86328125 C-1.6640625 21.42578125 -1.6640625 21.42578125 -4.6640625 19.42578125 C-4.6640625 18.43578125 -4.6640625 17.44578125 -4.6640625 16.42578125 C-1.6940625 16.42578125 1.2759375 16.42578125 4.3359375 16.42578125 C4.3359375 16.09578125 4.3359375 15.76578125 4.3359375 15.42578125 C3.4284375 15.50828125 2.5209375 15.59078125 1.5859375 15.67578125 C-1.6640625 15.42578125 -1.6640625 15.42578125 -4.0390625 13.86328125 C-6.2726194 10.5129459 -6.15804459 8.37763795 -5.6640625 4.42578125 C-4.0686598 1.44168915 -3.39805428 0.54309079 0 0 Z " fill="#4F4E59" transform="translate(215.6640625,241.57421875)"/>
<path d="M0 0 C3.53233755 1.17744585 3.86308075 1.95605641 5.6875 5.0625 C6.12449219 5.79597656 6.56148438 6.52945313 7.01171875 7.28515625 C7.33785156 7.85105469 7.66398437 8.41695312 8 9 C10.38672669 6.03716687 12.7353371 3.05729491 15 0 C15.99 0.33 16.98 0.66 18 1 C18 6.61 18 12.22 18 18 C16.68 18 15.36 18 14 18 C13.67 15.36 13.34 12.72 13 10 C11.515 12.475 11.515 12.475 10 15 C8.125 14.75 8.125 14.75 6 14 C4.75 11.9375 4.75 11.9375 4 10 C3.67 12.64 3.34 15.28 3 18 C1.68 18 0.36 18 -1 18 C-1.02684312 15.18743719 -1.04676188 12.37512759 -1.0625 9.5625 C-1.07087891 8.76005859 -1.07925781 7.95761719 -1.08789062 7.13085938 C-1.0965143 5.08704779 -1.0522815 3.04316098 -1 1 C-0.67 0.67 -0.34 0.34 0 0 Z " fill="#494854" transform="translate(288,238)"/>
<path d="M0 0 C1 1 1 1 1.09765625 3.94140625 C1.08605469 5.13636719 1.07445312 6.33132812 1.0625 7.5625 C1.05347656 8.76003906 1.04445312 9.95757812 1.03515625 11.19140625 C1.02355469 12.11824219 1.01195312 13.04507813 1 14 C-2.78088384 14.78688445 -6.12824439 15.41188889 -10 15 C-12.375 13.4375 -12.375 13.4375 -14 11 C-14.54861638 7.15968535 -14.54211763 4.96102671 -12.625 1.5625 C-8.62210456 -0.82017586 -4.55577127 -0.50619681 0 0 Z " fill="#474652" transform="translate(241,242)"/>
<path d="M0 0 C0.84433594 0.00257813 1.68867188 0.00515625 2.55859375 0.0078125 C3.79802734 0.00394531 3.79802734 0.00394531 5.0625 0 C8.74812244 0.16685907 12.33960397 0.64111804 15.99609375 1.1328125 C16.04989953 3.92473455 16.08967044 6.7156266 16.12109375 9.5078125 C16.14623047 10.69890625 16.14623047 10.69890625 16.171875 11.9140625 C16.18944848 13.98773265 16.09944543 16.06164491 15.99609375 18.1328125 C15.33609375 18.7928125 14.67609375 19.4528125 13.99609375 20.1328125 C12.34609375 19.8028125 10.69609375 19.4728125 8.99609375 19.1328125 C9.32609375 15.1728125 9.65609375 11.2128125 9.99609375 7.1328125 C7.33546875 7.16375 7.33546875 7.16375 4.62109375 7.1953125 C-0.75390625 7.2578125 -0.75390625 7.2578125 -3.00390625 6.1328125 C-3.04662725 4.46669345 -3.04454457 2.79898365 -3.00390625 1.1328125 C-2.00390625 0.1328125 -2.00390625 0.1328125 0 0 Z " fill="#ABABAB" transform="translate(331.00390625,216.8671875)"/>
<path d="M0 0 C0.74886475 0.00523682 1.49772949 0.01047363 2.26928711 0.01586914 C3.07817383 0.0190918 3.88706055 0.02231445 4.72045898 0.02563477 C5.5705957 0.03401367 6.42073242 0.04239258 7.29663086 0.05102539 C8.15063477 0.05553711 9.00463867 0.06004883 9.88452148 0.06469727 C12.00108749 0.07652166 14.11761771 0.0944577 16.23413086 0.11352539 C16.2610319 2.90525594 16.28092139 5.69672888 16.29663086 8.48852539 C16.30500977 9.28258789 16.31338867 10.07665039 16.32202148 10.89477539 C16.34741211 16.88696289 16.34741211 16.88696289 15.23413086 19.11352539 C13.56801181 19.15624639 11.90030201 19.15416371 10.23413086 19.11352539 C9.90413086 18.78352539 9.57413086 18.45352539 9.23413086 18.11352539 C9.4127198 14.09815469 9.85493891 10.11610707 10.23413086 6.11352539 C6.27413086 6.11352539 2.31413086 6.11352539 -1.76586914 6.11352539 C-2.09586914 4.46352539 -2.42586914 2.81352539 -2.76586914 1.11352539 C-1.76586914 0.11352539 -1.76586914 0.11352539 0 0 Z " fill="#631FEB" transform="translate(320.765869140625,226.886474609375)"/>
<path d="M0 0 C2.4375 1.6875 2.4375 1.6875 4 4 C4 5.65 4 7.3 4 9 C0.37 9.33 -3.26 9.66 -7 10 C-6.01732141 11.20561184 -6.01732141 11.20561184 -4.15234375 11.09765625 C-2.1015625 11.06510417 -0.05078125 11.03255208 2 11 C1.67 12.32 1.34 13.64 1 15 C-6.22891566 15.48192771 -6.22891566 15.48192771 -9.5 13.4375 C-11.58392818 10.05111671 -11.55802097 7.90614682 -11 4 C-8.11188513 -0.5054592 -5.11821063 -0.73117295 0 0 Z " fill="#4B4A56" transform="translate(320,242)"/>
<path d="M0 0 C2.4375 1.6875 2.4375 1.6875 4 4 C4 5.65 4 7.3 4 9 C0.37 9.33 -3.26 9.66 -7 10 C-6.01732141 11.20561184 -6.01732141 11.20561184 -4.15234375 11.09765625 C-2.1015625 11.06510417 -0.05078125 11.03255208 2 11 C1.67 12.32 1.34 13.64 1 15 C-6.22891566 15.48192771 -6.22891566 15.48192771 -9.5 13.4375 C-11.58392818 10.05111671 -11.55802097 7.90614682 -11 4 C-8.11188513 -0.5054592 -5.11821063 -0.73117295 0 0 Z " fill="#4B4A56" transform="translate(280,242)"/>
<path d="M0 0 C1.875 0.31640625 1.875 0.31640625 3.875 1.44140625 C5.29598605 4.10575509 5.07267261 6.3513171 4.875 9.31640625 C1.575 9.64640625 -1.725 9.97640625 -5.125 10.31640625 C-4.14232141 11.52201809 -4.14232141 11.52201809 -2.27734375 11.4140625 C-0.2265625 11.38151042 1.82421875 11.34895833 3.875 11.31640625 C3.875 12.30640625 3.875 13.29640625 3.875 14.31640625 C0.78326248 15.86227501 -1.71929552 15.61000146 -5.125 15.31640625 C-7.5625 13.75390625 -7.5625 13.75390625 -9.125 11.31640625 C-9.57810904 7.6915339 -9.51385542 5.26424134 -8.125 1.87890625 C-5.40983781 -0.24231421 -3.37563681 -0.19236166 0 0 Z " fill="#464551" transform="translate(202.125,241.68359375)"/>
<path d="M0 0 C4.29 0 8.58 0 13 0 C12.03302499 3.86790003 11.47299793 4.94476825 8.9375 7.75 C8.38964844 8.36359375 7.84179688 8.9771875 7.27734375 9.609375 C6.85582031 10.06828125 6.43429687 10.5271875 6 11 C8.31 11.33 10.62 11.66 13 12 C13 12.99 13 13.98 13 15 C8.71 15 4.42 15 0 15 C0.96697501 11.13209997 1.52700207 10.05523175 4.0625 7.25 C4.88427734 6.32960937 4.88427734 6.32960937 5.72265625 5.390625 C6.14417969 4.93171875 6.56570313 4.4728125 7 4 C4.69 3.67 2.38 3.34 0 3 C0 2.01 0 1.02 0 0 Z " fill="#41414D" transform="translate(254,242)"/>
<path d="M0 0 C0.99 0.33 1.98 0.66 3 1 C3 5.95 3 10.9 3 16 C6.63 16 10.26 16 14 16 C14 16.99 14 17.98 14 19 C11.68756208 19.02685412 9.3750373 19.04632841 7.0625 19.0625 C5.77472656 19.07410156 4.48695313 19.08570313 3.16015625 19.09765625 C0 19 0 19 -1 18 C-1.09986975 15.15664952 -1.13877881 12.34302837 -1.125 9.5 C-1.12886719 8.70207031 -1.13273438 7.90414062 -1.13671875 7.08203125 C-1.12660767 1.12660767 -1.12660767 1.12660767 0 0 Z " fill="#4A4955" transform="translate(178,238)"/>
<path d="M0 0 C0.99 0 1.98 0 3 0 C3 0.99 3 1.98 3 3 C5.97 3 8.94 3 12 3 C11.59007812 3.53109375 11.18015625 4.0621875 10.7578125 4.609375 C10.21898437 5.31578125 9.68015625 6.0221875 9.125 6.75 C8.59132813 7.44609375 8.05765625 8.1421875 7.5078125 8.859375 C6.10761086 10.84722603 5.02144735 12.79843386 4 15 C2.68 15 1.36 15 0 15 C0 10.05 0 5.1 0 0 Z " fill="#F4F4F5" transform="translate(250,242)"/>
<path d="M0 0 C3 1 3 1 6 3 C4.35 3.66 2.7 4.32 1 5 C1 6.65 1 8.3 1 10 C2.98 10.66 4.96 11.32 7 12 C7 12.99 7 13.98 7 15 C3.50355037 15.31785906 1.602598 15.39644605 -1.375 13.4375 C-3.6085569 10.08716465 -3.49398209 7.9518567 -3 4 C-1.5 1.5625 -1.5 1.5625 0 0 Z " fill="#44434F" transform="translate(213,242)"/>
<path d="M0 0 C2.475 0.99 2.475 0.99 5 2 C4.360625 2.309375 3.72125 2.61875 3.0625 2.9375 C1.06389179 3.8345163 1.06389179 3.8345163 0 5 C-0.04063832 6.66617115 -0.042721 8.33388095 0 10 C1.98 10.66 3.96 11.32 6 12 C6 12.99 6 13.98 6 15 C2.50355037 15.31785906 0.602598 15.39644605 -2.375 13.4375 C-4.62340519 10.06489221 -4.56783945 7.97487617 -4 4 C-2 1.5625 -2 1.5625 0 0 Z " fill="#44434F" transform="translate(231,242)"/>
<path d="M0 0 C2.4375 0.1875 2.4375 0.1875 3.4375 1.1875 C3.5625 4.6875 3.5625 4.6875 3.4375 8.1875 C2.4375 9.1875 2.4375 9.1875 0 9.375 C-2.5625 9.1875 -2.5625 9.1875 -4.5625 7.1875 C-4.8125 4.6875 -4.8125 4.6875 -4.5625 2.1875 C-2.5625 0.1875 -2.5625 0.1875 0 0 Z " fill="#F5F5F5" transform="translate(234.5625,244.8125)"/>
<path d="M0 0 C2.4375 0.1875 2.4375 0.1875 3.4375 1.1875 C3.5625 4.6875 3.5625 4.6875 3.4375 8.1875 C2.4375 9.1875 2.4375 9.1875 0 9.375 C-2.5625 9.1875 -2.5625 9.1875 -4.5625 7.1875 C-4.8125 4.6875 -4.8125 4.6875 -4.5625 2.1875 C-2.5625 0.1875 -2.5625 0.1875 0 0 Z " fill="#F7F7F8" transform="translate(217.5625,244.8125)"/>
<path d="M0 0 C0.99 0 1.98 0 3 0 C3 5.94 3 11.88 3 18 C2.01 18.33 1.02 18.66 0 19 C0 12.73 0 6.46 0 0 Z " fill="#3E3D49" transform="translate(245,238)"/>
<path d="M0 0 C0.99 0 1.98 0 3 0 C3 4.62 3 9.24 3 14 C2.01 14.33 1.02 14.66 0 15 C0 10.05 0 5.1 0 0 Z " fill="#3E3E4A" transform="translate(250,242)"/>
<path d="M0 0 C3.3 0 6.6 0 10 0 C10 0.66 10 1.32 10 2 C7.36 2.33 4.72 2.66 2 3 C1.34 2.01 0.68 1.02 0 0 Z " fill="#F0F0F1" transform="translate(312,251)"/>
<path d="M0 0 C3.3 0 6.6 0 10 0 C10 0.66 10 1.32 10 2 C7.36 2.33 4.72 2.66 2 3 C1.34 2.01 0.68 1.02 0 0 Z " fill="#F0F0F1" transform="translate(272,251)"/>
<path d="M0 0 C3.3 0 6.6 0 10 0 C7 3 7 3 4.4375 3.375 C3.633125 3.25125 2.82875 3.1275 2 3 C1.34 2.01 0.68 1.02 0 0 Z " fill="#F3F2F3" transform="translate(196,251)"/>
<path d="M0 0 C2.625 -0.1875 2.625 -0.1875 5 0 C5.33 0.99 5.66 1.98 6 3 C3.36 3 0.72 3 -2 3 C-1.34 2.01 -0.68 1.02 0 0 Z " fill="#FAFAFA" transform="translate(198,245)"/>
<path d="M0 0 C1.65 0 3.3 0 5 0 C5.33 0.99 5.66 1.98 6 3 C3.69 3 1.38 3 -1 3 C-0.67 2.01 -0.34 1.02 0 0 Z " fill="#FCFCFC" transform="translate(314,245)"/>
<path d="M0 0 C1.65 0 3.3 0 5 0 C5.33 0.99 5.66 1.98 6 3 C3.69 3 1.38 3 -1 3 C-0.67 2.01 -0.34 1.02 0 0 Z " fill="#FCFCFC" transform="translate(274,245)"/>
</svg>
