<svg xmlns="http://www.w3.org/2000/svg" xmlns:xlink="http://www.w3.org/1999/xlink" width="500" zoomAndPan="magnify" viewBox="0 0 375 374.999991" height="500" preserveAspectRatio="xMidYMid meet" version="1.0"><defs><g/></defs><g fill="#00285e" fill-opacity="1"><g transform="translate(78.698437, 166.237964)"><g><path d="M 87.015625 8.71875 C 87.046875 8.71875 87.097656 8.71875 87.171875 8.71875 C 87.390625 8.75 87.601562 8.796875 87.8125 8.859375 C 88.019531 8.929688 88.207031 9.0625 88.375 9.25 C 88.4375 9.3125 88.484375 9.390625 88.515625 9.484375 C 88.554688 9.585938 88.550781 9.6875 88.5 9.78125 C 88.476562 9.882812 88.425781 9.972656 88.34375 10.046875 C 88.257812 10.128906 88.1875 10.171875 88.125 10.171875 C 87.738281 10.234375 87.335938 10.234375 86.921875 10.171875 C 77.097656 8.140625 66.203125 6.828125 54.234375 6.234375 C 42.273438 5.640625 31.242188 5.851562 21.140625 6.875 C 20.679688 6.90625 20.238281 6.957031 19.8125 7.03125 C 19.4375 7.0625 19.070312 7.09375 18.71875 7.125 C 17.59375 7.28125 16.628906 7.773438 15.828125 8.609375 C 14.003906 10.585938 12.003906 12.332031 9.828125 13.84375 C 8.109375 15 6.21875 15.644531 4.15625 15.78125 C 3.320312 15.832031 2.515625 15.695312 1.734375 15.375 C 1.003906 15.050781 0.53125 14.566406 0.3125 13.921875 C 0.101562 13.285156 0.195312 12.597656 0.59375 11.859375 C 1.238281 10.828125 2.300781 9.941406 3.78125 9.203125 C 5.257812 8.460938 6.835938 7.859375 8.515625 7.390625 C 10.191406 6.921875 11.609375 6.570312 12.765625 6.34375 C 14.316406 6.050781 15.578125 5.300781 16.546875 4.09375 C 21.222656 -1.59375 25.71875 -8.03125 30.03125 -15.21875 C 34.34375 -22.40625 38.316406 -29.796875 41.953125 -37.390625 C 45.597656 -44.992188 48.726562 -52.273438 51.34375 -59.234375 C 51.4375 -59.597656 51.585938 -59.914062 51.796875 -60.1875 C 52.015625 -60.457031 52.328125 -60.644531 52.734375 -60.75 C 53.128906 -60.8125 53.46875 -60.734375 53.75 -60.515625 C 54.039062 -60.304688 54.15625 -60.015625 54.09375 -59.640625 C 53.96875 -58.722656 53.742188 -57.832031 53.421875 -56.96875 C 50.910156 -50.363281 47.9375 -43.484375 44.5 -36.328125 C 41.070312 -29.171875 37.332031 -22.191406 33.28125 -15.390625 C 29.238281 -8.597656 25.070312 -2.453125 20.78125 3.046875 C 19.894531 4.179688 19.625 4.835938 19.96875 5.015625 C 20.320312 5.203125 21.007812 5.191406 22.03125 4.984375 C 22.269531 4.953125 22.5 4.925781 22.71875 4.90625 C 30.78125 3.988281 39.140625 3.707031 47.796875 4.0625 C 56.453125 4.425781 64.984375 5.1875 73.390625 6.34375 C 76.347656 6.769531 79.25 7.253906 82.09375 7.796875 C 83.757812 8.117188 85.398438 8.425781 87.015625 8.71875 Z M 5.359375 13.6875 C 7.816406 12.6875 9.851562 11.113281 11.46875 8.96875 C 8.820312 9.15625 6.460938 9.972656 4.390625 11.421875 C 3.742188 11.910156 3.363281 12.378906 3.25 12.828125 C 3.144531 13.285156 3.28125 13.613281 3.65625 13.8125 C 4.03125 14.019531 4.597656 13.976562 5.359375 13.6875 Z M 5.359375 13.6875 "/></g></g></g><g fill="#00285e" fill-opacity="1"><g transform="translate(118.46982, 166.237964)"><g><path d="M 12.515625 -8.4375 C 11.671875 -7.601562 10.679688 -6.890625 9.546875 -6.296875 C 8.421875 -5.703125 7.476562 -5.3125 6.71875 -5.125 C 5.957031 -4.945312 5.175781 -4.84375 4.375 -4.8125 C 3.082031 -4.75 1.894531 -4.925781 0.8125 -5.34375 C -0.957031 -6.0625 -1.570312 -7.429688 -1.03125 -9.453125 C -0.519531 -11.191406 0.515625 -12.550781 2.078125 -13.53125 C 3.648438 -14.507812 5.269531 -14.988281 6.9375 -14.96875 C 6.9375 -14.96875 6.953125 -14.96875 6.984375 -14.96875 C 7.410156 -14.988281 7.816406 -14.957031 8.203125 -14.875 C 8.835938 -14.644531 9.242188 -14.265625 9.421875 -13.734375 C 9.597656 -13.203125 9.484375 -12.613281 9.078125 -11.96875 C 8.140625 -10.550781 6.863281 -9.765625 5.25 -9.609375 C 4.175781 -9.503906 3.144531 -9.550781 2.15625 -9.75 C 1.96875 -9.78125 1.796875 -9.726562 1.640625 -9.59375 C 1.492188 -9.46875 1.410156 -9.3125 1.390625 -9.125 C 1.085938 -7.863281 1.472656 -7.054688 2.546875 -6.703125 C 3.867188 -6.242188 5.238281 -6.242188 6.65625 -6.703125 C 8.300781 -7.210938 9.863281 -8.175781 11.34375 -9.59375 C 12.820312 -11.019531 13.671875 -11.6875 13.890625 -11.59375 C 14.117188 -11.5 14.191406 -11.222656 14.109375 -10.765625 C 13.898438 -10.046875 13.367188 -9.269531 12.515625 -8.4375 Z M 3.171875 -11.96875 C 3.078125 -11.875 3.007812 -11.765625 2.96875 -11.640625 C 2.9375 -11.515625 2.988281 -11.398438 3.125 -11.296875 C 3.632812 -11.003906 4.1875 -10.894531 4.78125 -10.96875 C 5.382812 -11.050781 5.894531 -11.28125 6.3125 -11.65625 C 6.726562 -12.03125 6.910156 -12.488281 6.859375 -13.03125 C 6.816406 -13.21875 6.710938 -13.335938 6.546875 -13.390625 C 6.390625 -13.441406 6.226562 -13.453125 6.0625 -13.421875 C 4.976562 -13.234375 4.015625 -12.75 3.171875 -11.96875 Z M 3.171875 -11.96875 "/></g></g></g><g fill="#00285e" fill-opacity="1"><g transform="translate(130.357905, 166.237964)"><g><path d="M 19.40625 -11.78125 C 19.519531 -11.8125 19.648438 -11.8125 19.796875 -11.78125 C 19.941406 -11.75 20.050781 -11.679688 20.125 -11.578125 C 20.21875 -11.421875 20.210938 -11.257812 20.109375 -11.09375 C 20.015625 -10.9375 19.875 -10.8125 19.6875 -10.71875 C 18.363281 -10.070312 17.035156 -9.40625 15.703125 -8.71875 C 14.140625 -7.914062 12.566406 -7.113281 10.984375 -6.3125 C 10.753906 -6.21875 10.53125 -6.109375 10.3125 -5.984375 C 9.957031 -5.785156 9.601562 -5.609375 9.25 -5.453125 C 8.445312 -5.054688 7.910156 -4.441406 7.640625 -3.609375 C 6.941406 -1.609375 6.203125 0.367188 5.421875 2.328125 C 4.429688 4.953125 3.1875 7.453125 1.6875 9.828125 C 0.851562 11.179688 -0.15625 12.390625 -1.34375 13.453125 C -2.757812 14.785156 -4.382812 15.625 -6.21875 15.96875 C -9.25 16.582031 -12.171875 16.382812 -14.984375 15.375 C -16.140625 14.96875 -17.132812 14.3125 -17.96875 13.40625 C -19.101562 12.1875 -19.15625 10.882812 -18.125 9.5 C -17.675781 8.90625 -17.171875 8.351562 -16.609375 7.84375 C -15.367188 6.71875 -14.019531 5.707031 -12.5625 4.8125 C -7.363281 1.488281 -2.023438 -1.570312 3.453125 -4.375 C 3.484375 -4.375 3.5 -4.375 3.5 -4.375 C 4.0625 -4.664062 4.625 -4.972656 5.1875 -5.296875 C 5.269531 -5.367188 5.390625 -5.523438 5.546875 -5.765625 C 5.710938 -6.003906 5.835938 -6.242188 5.921875 -6.484375 C 6.003906 -6.734375 5.984375 -6.910156 5.859375 -7.015625 C 5.734375 -7.128906 5.425781 -7.078125 4.9375 -6.859375 C 4.75 -6.785156 4.578125 -6.703125 4.421875 -6.609375 C 3.992188 -6.410156 3.566406 -6.226562 3.140625 -6.0625 C 0.640625 -5.457031 -0.609375 -6.425781 -0.609375 -8.96875 C -0.554688 -10.488281 -0.101562 -11.859375 0.75 -13.078125 C 1.613281 -14.304688 2.710938 -15.265625 4.046875 -15.953125 C 5.378906 -16.648438 6.820312 -16.921875 8.375 -16.765625 C 8.53125 -16.765625 8.691406 -16.742188 8.859375 -16.703125 C 9.285156 -16.640625 9.710938 -16.609375 10.140625 -16.609375 C 10.566406 -16.609375 11.007812 -16.703125 11.46875 -16.890625 C 11.945312 -17.085938 12.304688 -17.035156 12.546875 -16.734375 C 12.796875 -16.429688 12.835938 -16.039062 12.671875 -15.5625 C 12.253906 -14.644531 11.835938 -13.71875 11.421875 -12.78125 C 11.128906 -12.21875 10.851562 -11.628906 10.59375 -11.015625 C 10.300781 -10.367188 10.015625 -9.707031 9.734375 -9.03125 C 9.335938 -8.15625 9.273438 -7.691406 9.546875 -7.640625 C 9.828125 -7.597656 10.304688 -7.753906 10.984375 -8.109375 C 11.078125 -8.140625 11.171875 -8.171875 11.265625 -8.203125 C 12.503906 -8.785156 13.742188 -9.363281 14.984375 -9.9375 C 15.859375 -10.332031 16.726562 -10.734375 17.59375 -11.140625 C 18.1875 -11.398438 18.789062 -11.613281 19.40625 -11.78125 Z M 3.78125 0.015625 C 4.226562 -1.265625 4.421875 -2.109375 4.359375 -2.515625 C 4.296875 -2.921875 4.015625 -3.023438 3.515625 -2.828125 C 3.015625 -2.640625 2.363281 -2.289062 1.5625 -1.78125 C 1.050781 -1.457031 0.488281 -1.132812 -0.125 -0.8125 C -3.832031 1.195312 -7.445312 3.34375 -10.96875 5.625 C -12.519531 6.53125 -13.90625 7.628906 -15.125 8.921875 C -16.40625 10.296875 -16.359375 11.519531 -14.984375 12.59375 C -14.179688 13.238281 -13.285156 13.6875 -12.296875 13.9375 C -11.304688 14.195312 -10.21875 14.328125 -9.03125 14.328125 C -7.632812 14.429688 -6.34375 14.175781 -5.15625 13.5625 C -3.976562 12.945312 -2.882812 12.019531 -1.875 10.78125 C -1.269531 9.976562 -0.6875 9.144531 -0.125 8.28125 C 1.476562 5.644531 2.78125 2.890625 3.78125 0.015625 Z M 2.328125 -7.75 C 2.710938 -7.59375 3.265625 -7.734375 3.984375 -8.171875 C 4.710938 -8.609375 5.457031 -9.210938 6.21875 -9.984375 C 6.976562 -10.753906 7.582031 -11.539062 8.03125 -12.34375 C 8.476562 -13.15625 8.59375 -13.835938 8.375 -14.390625 C 8.3125 -14.554688 8.21875 -14.703125 8.09375 -14.828125 C 7.851562 -15.109375 7.585938 -15.238281 7.296875 -15.21875 C 7.015625 -15.207031 6.710938 -15.160156 6.390625 -15.078125 C 5.328125 -14.648438 4.382812 -13.921875 3.5625 -12.890625 C 2.738281 -11.859375 2.191406 -10.835938 1.921875 -9.828125 C 1.648438 -8.816406 1.785156 -8.125 2.328125 -7.75 Z M 2.328125 -7.75 "/></g></g></g><g fill="#00285e" fill-opacity="1"><g transform="translate(148.222549, 166.237964)"><g><path d="M 15.9375 -11.1875 C 16.28125 -11 16.304688 -10.519531 16.015625 -9.75 C 15.585938 -9.195312 15.132812 -8.675781 14.65625 -8.1875 C 14.175781 -7.707031 13.648438 -7.28125 13.078125 -6.90625 C 13.035156 -6.90625 13.015625 -6.890625 13.015625 -6.859375 C 12.628906 -6.585938 12.222656 -6.359375 11.796875 -6.171875 C 8.296875 -4.910156 6.507812 -5.648438 6.4375 -8.390625 C 5.019531 -7.160156 4.066406 -6.40625 3.578125 -6.125 C 2.421875 -5.4375 1.171875 -5.128906 -0.171875 -5.203125 C -1.171875 -5.265625 -1.847656 -5.566406 -2.203125 -6.109375 C -2.566406 -6.660156 -2.535156 -7.40625 -2.109375 -8.34375 C -1.460938 -9.820312 -0.546875 -11.144531 0.640625 -12.3125 C 2.023438 -13.59375 3.570312 -14.625 5.28125 -15.40625 C 6.1875 -15.851562 7.132812 -16.03125 8.125 -15.9375 C 9.125 -15.875 9.726562 -15.304688 9.9375 -14.234375 C 10.019531 -13.910156 9.9375 -13.625 9.6875 -13.375 C 9.363281 -13.082031 8.988281 -13.019531 8.5625 -13.1875 C 8.539062 -13.1875 8.503906 -13.191406 8.453125 -13.203125 C 8.398438 -13.222656 8.359375 -13.242188 8.328125 -13.265625 C 7.898438 -13.859375 7.46875 -14.101562 7.03125 -14 C 6.601562 -13.90625 6.148438 -13.710938 5.671875 -13.421875 C 3.410156 -12.109375 1.734375 -10.269531 0.640625 -7.90625 C 0.578125 -7.800781 0.535156 -7.6875 0.515625 -7.5625 C 0.503906 -7.445312 0.546875 -7.347656 0.640625 -7.265625 C 0.898438 -7.179688 1.191406 -7.203125 1.515625 -7.328125 C 1.835938 -7.453125 2.160156 -7.632812 2.484375 -7.875 C 2.804688 -8.113281 3.078125 -8.316406 3.296875 -8.484375 C 3.328125 -8.523438 3.34375 -8.546875 3.34375 -8.546875 C 4.40625 -9.441406 5.453125 -10.359375 6.484375 -11.296875 C 6.929688 -11.773438 7.492188 -12.046875 8.171875 -12.109375 C 9.140625 -12.109375 9.539062 -11.675781 9.375 -10.8125 C 9.289062 -10.488281 9.195312 -10.164062 9.09375 -9.84375 C 8.71875 -8.445312 8.703125 -7.628906 9.046875 -7.390625 C 9.398438 -7.148438 9.9375 -7.148438 10.65625 -7.390625 C 11.382812 -7.628906 12.113281 -8.085938 12.84375 -8.765625 C 13.570312 -9.453125 14.179688 -10.078125 14.671875 -10.640625 C 15.171875 -11.203125 15.59375 -11.382812 15.9375 -11.1875 Z M 15.9375 -11.1875 "/></g></g></g><g fill="#00285e" fill-opacity="1"><g transform="translate(161.890421, 166.237964)"><g><path d="M 10.640625 -10.484375 C 11.117188 -10.960938 11.519531 -11.226562 11.84375 -11.28125 C 12.164062 -11.34375 12.375 -11.296875 12.46875 -11.140625 C 12.5625 -10.984375 12.5 -10.765625 12.28125 -10.484375 C 10.988281 -8.929688 9.546875 -7.585938 7.953125 -6.453125 C 6.359375 -5.328125 4.710938 -4.675781 3.015625 -4.5 C 1.328125 -4.320312 0.304688 -5.242188 -0.046875 -7.265625 C -0.304688 -9.273438 0.90625 -13.363281 3.59375 -19.53125 C 6.289062 -25.695312 8.425781 -30.75 10 -34.6875 C 10.132812 -35.039062 10.332031 -35.351562 10.59375 -35.625 C 10.945312 -35.96875 11.363281 -36.046875 11.84375 -35.859375 C 12 -35.785156 12.15625 -35.664062 12.3125 -35.5 C 12.476562 -35.34375 12.535156 -35.0625 12.484375 -34.65625 C 5.554688 -18.21875 2.203125 -9.28125 2.421875 -7.84375 C 2.640625 -6.40625 3.5625 -6.046875 5.1875 -6.765625 C 6.820312 -7.492188 8.082031 -8.234375 8.96875 -8.984375 C 9.863281 -9.742188 10.421875 -10.242188 10.640625 -10.484375 Z M 10.640625 -10.484375 "/></g></g></g><g fill="#00285e" fill-opacity="1"><g transform="translate(171.954779, 166.237964)"><g><path d="M 8.734375 -9.25 C 7.953125 -8.320312 7.023438 -7.46875 5.953125 -6.6875 C 4.878906 -5.914062 3.671875 -5.394531 2.328125 -5.125 C 0.984375 -4.851562 -0.0625 -4.953125 -0.8125 -5.421875 C -1.5625 -5.890625 -1.707031 -6.929688 -1.25 -8.546875 C -0.664062 -10.210938 0.140625 -11.800781 1.171875 -13.3125 C 1.398438 -13.632812 1.734375 -13.863281 2.171875 -14 C 2.492188 -14.070312 2.773438 -14.015625 3.015625 -13.828125 C 3.265625 -13.648438 3.359375 -13.421875 3.296875 -13.140625 C 3.078125 -12.609375 2.832031 -12.078125 2.5625 -11.546875 C 2.300781 -11.023438 2.128906 -10.6875 2.046875 -10.53125 C 1.535156 -9.59375 1.175781 -8.609375 0.96875 -7.578125 C 0.96875 -6.992188 1.75 -6.957031 3.3125 -7.46875 C 4.882812 -7.976562 6.410156 -8.914062 7.890625 -10.28125 C 9.367188 -11.65625 10.070312 -12.0625 10 -11.5 C 9.9375 -10.9375 9.515625 -10.1875 8.734375 -9.25 Z M 4.90625 -16.609375 C 4.832031 -16.554688 4.679688 -16.488281 4.453125 -16.40625 C 4.222656 -16.320312 3.976562 -16.257812 3.71875 -16.21875 C 3.46875 -16.1875 3.269531 -16.226562 3.125 -16.34375 C 2.976562 -16.46875 2.96875 -16.703125 3.09375 -17.046875 C 3.332031 -17.660156 3.578125 -18.195312 3.828125 -18.65625 C 4.085938 -19.125 4.421875 -19.632812 4.828125 -20.1875 C 5.097656 -20.4375 5.382812 -20.570312 5.6875 -20.59375 C 6 -20.613281 6.253906 -20.53125 6.453125 -20.34375 C 6.660156 -20.164062 6.722656 -19.914062 6.640625 -19.59375 C 6.316406 -18.4375 5.738281 -17.441406 4.90625 -16.609375 Z M 4.90625 -16.609375 "/></g></g></g><g fill="#00285e" fill-opacity="1"><g transform="translate(179.624116, 166.237964)"><g><path d="M 3.28125 -8.796875 C 2.738281 -8.398438 2.46875 -8.117188 2.46875 -7.953125 C 2.46875 -7.796875 2.640625 -7.703125 2.984375 -7.671875 C 3.335938 -7.640625 3.726562 -7.625 4.15625 -7.625 C 4.28125 -7.65625 4.390625 -7.671875 4.484375 -7.671875 C 5.867188 -7.640625 7.207031 -7.445312 8.5 -7.09375 C 8.882812 -6.96875 9.257812 -6.785156 9.625 -6.546875 C 9.65625 -6.515625 9.671875 -6.5 9.671875 -6.5 C 9.722656 -6.46875 9.765625 -6.40625 9.796875 -6.3125 C 9.835938 -6.21875 9.835938 -6.132812 9.796875 -6.0625 C 9.796875 -6.007812 9.753906 -5.957031 9.671875 -5.90625 C 9.597656 -5.851562 9.53125 -5.8125 9.46875 -5.78125 C 9.207031 -5.71875 8.953125 -5.703125 8.703125 -5.734375 C 5.992188 -6.054688 3.285156 -6.203125 0.578125 -6.171875 C 0.0546875 -6.171875 -0.472656 -6.171875 -1.015625 -6.171875 C -1.171875 -6.171875 -1.351562 -6.15625 -1.5625 -6.125 C -1.9375 -6.082031 -2.285156 -6.09375 -2.609375 -6.15625 C -2.929688 -6.226562 -3.144531 -6.476562 -3.25 -6.90625 C -3.3125 -7.226562 -3.226562 -7.460938 -3 -7.609375 C -2.769531 -7.753906 -2.492188 -7.867188 -2.171875 -7.953125 C -1.953125 -8.023438 -1.75 -8.117188 -1.5625 -8.234375 C 0.738281 -9.523438 2.953125 -10.945312 5.078125 -12.5 C 5.941406 -13.113281 6.695312 -13.828125 7.34375 -14.640625 C 7.53125 -14.878906 7.566406 -15.101562 7.453125 -15.3125 C 7.347656 -15.53125 7.132812 -15.65625 6.8125 -15.6875 C 5.8125 -15.789062 4.84375 -15.710938 3.90625 -15.453125 C 3.882812 -15.453125 3.875 -15.453125 3.875 -15.453125 C 3.195312 -15.253906 2.5 -15.078125 1.78125 -14.921875 C 1.425781 -14.859375 1.117188 -14.96875 0.859375 -15.25 C 0.765625 -15.40625 0.765625 -15.578125 0.859375 -15.765625 C 0.960938 -15.953125 1.160156 -16.101562 1.453125 -16.21875 C 3.546875 -17.09375 5.734375 -17.398438 8.015625 -17.140625 C 8.554688 -17.046875 9.070312 -16.882812 9.5625 -16.65625 C 10.5 -16.175781 10.722656 -15.488281 10.234375 -14.59375 C 9.691406 -13.625 8.9375 -12.796875 7.96875 -12.109375 C 6.71875 -11.179688 5.429688 -10.265625 4.109375 -9.359375 C 3.816406 -9.171875 3.539062 -8.984375 3.28125 -8.796875 Z M 3.28125 -8.796875 "/></g></g></g><g fill="#00285e" fill-opacity="1"><g transform="translate(189.688473, 166.237964)"><g><path d="M 12.515625 -8.4375 C 11.671875 -7.601562 10.679688 -6.890625 9.546875 -6.296875 C 8.421875 -5.703125 7.476562 -5.3125 6.71875 -5.125 C 5.957031 -4.945312 5.175781 -4.84375 4.375 -4.8125 C 3.082031 -4.75 1.894531 -4.925781 0.8125 -5.34375 C -0.957031 -6.0625 -1.570312 -7.429688 -1.03125 -9.453125 C -0.519531 -11.191406 0.515625 -12.550781 2.078125 -13.53125 C 3.648438 -14.507812 5.269531 -14.988281 6.9375 -14.96875 C 6.9375 -14.96875 6.953125 -14.96875 6.984375 -14.96875 C 7.410156 -14.988281 7.816406 -14.957031 8.203125 -14.875 C 8.835938 -14.644531 9.242188 -14.265625 9.421875 -13.734375 C 9.597656 -13.203125 9.484375 -12.613281 9.078125 -11.96875 C 8.140625 -10.550781 6.863281 -9.765625 5.25 -9.609375 C 4.175781 -9.503906 3.144531 -9.550781 2.15625 -9.75 C 1.96875 -9.78125 1.796875 -9.726562 1.640625 -9.59375 C 1.492188 -9.46875 1.410156 -9.3125 1.390625 -9.125 C 1.085938 -7.863281 1.472656 -7.054688 2.546875 -6.703125 C 3.867188 -6.242188 5.238281 -6.242188 6.65625 -6.703125 C 8.300781 -7.210938 9.863281 -8.175781 11.34375 -9.59375 C 12.820312 -11.019531 13.671875 -11.6875 13.890625 -11.59375 C 14.117188 -11.5 14.191406 -11.222656 14.109375 -10.765625 C 13.898438 -10.046875 13.367188 -9.269531 12.515625 -8.4375 Z M 3.171875 -11.96875 C 3.078125 -11.875 3.007812 -11.765625 2.96875 -11.640625 C 2.9375 -11.515625 2.988281 -11.398438 3.125 -11.296875 C 3.632812 -11.003906 4.1875 -10.894531 4.78125 -10.96875 C 5.382812 -11.050781 5.894531 -11.28125 6.3125 -11.65625 C 6.726562 -12.03125 6.910156 -12.488281 6.859375 -13.03125 C 6.816406 -13.21875 6.710938 -13.335938 6.546875 -13.390625 C 6.390625 -13.441406 6.226562 -13.453125 6.0625 -13.421875 C 4.976562 -13.234375 4.015625 -12.75 3.171875 -11.96875 Z M 3.171875 -11.96875 "/></g></g></g><g fill="#00285e" fill-opacity="1"><g transform="translate(201.576561, 166.237964)"><g><path d="M 96.4375 -53.015625 C 96.332031 -52.753906 96.226562 -52.492188 96.125 -52.234375 C 95.101562 -49.566406 94 -46.941406 92.8125 -44.359375 C 86.6875 -31.628906 80.109375 -19.316406 73.078125 -7.421875 C 70.796875 -3.585938 68.457031 0.179688 66.0625 3.890625 C 63.675781 7.597656 61.273438 11.289062 58.859375 14.96875 C 58.296875 15.832031 57.71875 16.695312 57.125 17.5625 C 57.09375 17.632812 57.066406 17.679688 57.046875 17.703125 C 56.910156 17.972656 56.753906 18.195312 56.578125 18.375 C 56.398438 18.550781 56.164062 18.640625 55.875 18.640625 C 55.738281 18.640625 55.597656 18.601562 55.453125 18.53125 C 55.304688 18.46875 55.191406 18.382812 55.109375 18.28125 C 55.035156 18.195312 54.984375 18.054688 54.953125 17.859375 C 54.921875 17.660156 54.9375 17.5 55 17.375 C 55.394531 16.53125 55.832031 15.726562 56.3125 14.96875 C 57.394531 13.195312 58.488281 11.421875 59.59375 9.640625 C 61.65625 6.347656 63.679688 3.046875 65.671875 -0.265625 C 70.097656 -7.648438 74.320312 -15.1875 78.34375 -22.875 C 82.375 -30.5625 86.3125 -38.332031 90.15625 -46.1875 C 91.695312 -49.21875 92.960938 -52.460938 93.953125 -55.921875 C 94.160156 -56.523438 94.316406 -57.144531 94.421875 -57.78125 C 94.535156 -58.425781 94.59375 -59.09375 94.59375 -59.78125 C 94.488281 -61.257812 93.859375 -61.90625 92.703125 -61.71875 C 91.679688 -61.507812 90.710938 -61.1875 89.796875 -60.75 C 87.648438 -59.707031 85.53125 -58.5625 83.4375 -57.3125 C 72.1875 -50.476562 61.9375 -42 52.6875 -31.875 C 52.5625 -31.71875 52.414062 -31.5625 52.25 -31.40625 C 49.0625 -27.925781 45.894531 -24.421875 42.75 -20.890625 C 39.601562 -17.359375 36.550781 -13.726562 33.59375 -10 C 32.976562 -9.21875 32.332031 -8.492188 31.65625 -7.828125 C 30.945312 -7.078125 30.09375 -6.78125 29.09375 -6.9375 C 28.664062 -7 28.316406 -7.207031 28.046875 -7.5625 C 27.773438 -7.925781 27.671875 -8.347656 27.734375 -8.828125 C 27.929688 -10.148438 28.222656 -11.425781 28.609375 -12.65625 C 29.796875 -16.550781 31.054688 -20.394531 32.390625 -24.1875 C 32.578125 -24.78125 32.753906 -25.347656 32.921875 -25.890625 C 33.265625 -27.304688 33.757812 -28.613281 34.40625 -29.8125 C 34.40625 -29.84375 34.390625 -29.859375 34.359375 -29.859375 C 34.203125 -29.953125 34.039062 -30.019531 33.875 -30.0625 C 33.71875 -30.113281 33.5625 -30.0625 33.40625 -29.90625 C 32.8125 -29.257812 32.242188 -28.585938 31.703125 -27.890625 C 27.253906 -21.847656 22.847656 -15.757812 18.484375 -9.625 C 14.117188 -3.488281 9.851562 2.75 5.6875 9.09375 C 5.332031 9.707031 4.941406 10.207031 4.515625 10.59375 C 4.085938 10.988281 3.515625 11.117188 2.796875 10.984375 C 2.472656 10.898438 2.222656 10.703125 2.046875 10.390625 C 1.867188 10.085938 1.832031 9.789062 1.9375 9.5 C 2.3125 8.632812 2.726562 7.8125 3.1875 7.03125 C 4.476562 4.800781 5.753906 2.578125 7.015625 0.359375 C 9.546875 -4.054688 12.054688 -8.488281 14.546875 -12.9375 C 18.410156 -19.769531 21.859375 -26.957031 24.890625 -34.5 C 26.078125 -37.394531 27.046875 -40.441406 27.796875 -43.640625 C 28.203125 -45.335938 28.378906 -47.109375 28.328125 -48.953125 C 28.128906 -51.910156 27.144531 -54.023438 25.375 -55.296875 C 23.601562 -56.578125 21.273438 -57.179688 18.390625 -57.109375 C 15.503906 -57.046875 12.300781 -56.457031 8.78125 -55.34375 C 5.269531 -54.226562 1.671875 -52.753906 -2.015625 -50.921875 C -5.710938 -49.097656 -9.273438 -47.078125 -12.703125 -44.859375 C -16.128906 -42.648438 -19.175781 -40.410156 -21.84375 -38.140625 C -24.519531 -35.867188 -26.609375 -33.738281 -28.109375 -31.75 C -29.671875 -29.550781 -31.003906 -27.132812 -32.109375 -24.5 C -32.660156 -23.238281 -32.976562 -21.867188 -33.0625 -20.390625 C -33.09375 -20.097656 -33.238281 -19.878906 -33.5 -19.734375 C -33.769531 -19.585938 -34.066406 -19.539062 -34.390625 -19.59375 C -34.898438 -19.757812 -35.222656 -20.164062 -35.359375 -20.8125 C -35.441406 -21.65625 -35.375 -22.429688 -35.15625 -23.140625 C -34.675781 -24.910156 -34.03125 -26.585938 -33.21875 -28.171875 C -31.738281 -30.941406 -29.488281 -33.769531 -26.46875 -36.65625 C -23.457031 -39.539062 -19.941406 -42.300781 -15.921875 -44.9375 C -11.910156 -47.582031 -7.722656 -49.941406 -3.359375 -52.015625 C 1.003906 -54.085938 5.269531 -55.695312 9.4375 -56.84375 C 13.613281 -58 17.375 -58.519531 20.71875 -58.40625 C 24.070312 -58.289062 26.710938 -57.367188 28.640625 -55.640625 C 30.578125 -53.921875 31.519531 -51.207031 31.46875 -47.5 C 31.363281 -45.113281 30.988281 -42.84375 30.34375 -40.6875 C 29.40625 -37.53125 28.320312 -34.472656 27.09375 -31.515625 C 25.875 -28.566406 24.578125 -25.679688 23.203125 -22.859375 C 22.773438 -21.972656 22.679688 -21.539062 22.921875 -21.5625 C 23.171875 -21.582031 23.535156 -21.914062 24.015625 -22.5625 C 25.753906 -24.875 27.5 -27.160156 29.25 -29.421875 C 30.4375 -30.929688 31.644531 -32.410156 32.875 -33.859375 C 33.03125 -34.066406 33.191406 -34.265625 33.359375 -34.453125 C 34.054688 -35.316406 34.90625 -35.894531 35.90625 -36.1875 C 36.65625 -36.351562 37.285156 -36.1875 37.796875 -35.6875 C 38.304688 -35.1875 38.484375 -34.4375 38.328125 -33.4375 C 38.296875 -33.332031 38.265625 -33.234375 38.234375 -33.140625 C 37.972656 -31.847656 37.664062 -30.59375 37.3125 -29.375 C 36.375 -26.40625 35.40625 -23.453125 34.40625 -20.515625 C 33.925781 -19.015625 33.441406 -17.488281 32.953125 -15.9375 C 32.859375 -15.707031 32.710938 -15.300781 32.515625 -14.71875 C 32.328125 -14.207031 32.144531 -13.703125 31.96875 -13.203125 C 31.789062 -12.703125 31.648438 -12.320312 31.546875 -12.0625 C 31.679688 -12.164062 32.878906 -13.503906 35.140625 -16.078125 C 38.203125 -19.597656 41.828125 -23.71875 46.015625 -28.4375 C 50.203125 -33.15625 53.488281 -36.757812 55.875 -39.25 C 60.28125 -43.6875 64.925781 -47.722656 69.8125 -51.359375 C 74.695312 -55.003906 79.765625 -58.296875 85.015625 -61.234375 C 86.304688 -61.910156 87.628906 -62.519531 88.984375 -63.0625 C 89.273438 -63.164062 89.5625 -63.28125 89.84375 -63.40625 C 91.132812 -63.925781 92.503906 -64.117188 93.953125 -63.984375 C 96.734375 -63.722656 98.007812 -61.96875 97.78125 -58.71875 C 97.613281 -56.6875 97.164062 -54.785156 96.4375 -53.015625 Z M 34.25 -30 C 34.320312 -29.9375 34.375 -29.890625 34.40625 -29.859375 C 34.40625 -29.859375 34.40625 -29.84375 34.40625 -29.8125 C 34.4375 -29.8125 34.453125 -29.828125 34.453125 -29.859375 C 34.390625 -29.890625 34.320312 -29.9375 34.25 -30 Z M 34.25 -30 "/></g></g></g><g fill="#00285e" fill-opacity="1"><g transform="translate(283.491499, 166.237964)"><g><path d="M 12.515625 -8.4375 C 11.671875 -7.601562 10.679688 -6.890625 9.546875 -6.296875 C 8.421875 -5.703125 7.476562 -5.3125 6.71875 -5.125 C 5.957031 -4.945312 5.175781 -4.84375 4.375 -4.8125 C 3.082031 -4.75 1.894531 -4.925781 0.8125 -5.34375 C -0.957031 -6.0625 -1.570312 -7.429688 -1.03125 -9.453125 C -0.519531 -11.191406 0.515625 -12.550781 2.078125 -13.53125 C 3.648438 -14.507812 5.269531 -14.988281 6.9375 -14.96875 C 6.9375 -14.96875 6.953125 -14.96875 6.984375 -14.96875 C 7.410156 -14.988281 7.816406 -14.957031 8.203125 -14.875 C 8.835938 -14.644531 9.242188 -14.265625 9.421875 -13.734375 C 9.597656 -13.203125 9.484375 -12.613281 9.078125 -11.96875 C 8.140625 -10.550781 6.863281 -9.765625 5.25 -9.609375 C 4.175781 -9.503906 3.144531 -9.550781 2.15625 -9.75 C 1.96875 -9.78125 1.796875 -9.726562 1.640625 -9.59375 C 1.492188 -9.46875 1.410156 -9.3125 1.390625 -9.125 C 1.085938 -7.863281 1.472656 -7.054688 2.546875 -6.703125 C 3.867188 -6.242188 5.238281 -6.242188 6.65625 -6.703125 C 8.300781 -7.210938 9.863281 -8.175781 11.34375 -9.59375 C 12.820312 -11.019531 13.671875 -11.6875 13.890625 -11.59375 C 14.117188 -11.5 14.191406 -11.222656 14.109375 -10.765625 C 13.898438 -10.046875 13.367188 -9.269531 12.515625 -8.4375 Z M 3.171875 -11.96875 C 3.078125 -11.875 3.007812 -11.765625 2.96875 -11.640625 C 2.9375 -11.515625 2.988281 -11.398438 3.125 -11.296875 C 3.632812 -11.003906 4.1875 -10.894531 4.78125 -10.96875 C 5.382812 -11.050781 5.894531 -11.28125 6.3125 -11.65625 C 6.726562 -12.03125 6.910156 -12.488281 6.859375 -13.03125 C 6.816406 -13.21875 6.710938 -13.335938 6.546875 -13.390625 C 6.390625 -13.441406 6.226562 -13.453125 6.0625 -13.421875 C 4.976562 -13.234375 4.015625 -12.75 3.171875 -11.96875 Z M 3.171875 -11.96875 "/></g></g></g></svg>